<?xml version="1.0" encoding="UTF-8" standalone="no"?>
<!-- Created with Inkscape (http://www.inkscape.org/) -->

<svg
   xmlns:dc="http://purl.org/dc/elements/1.1/"
   xmlns:cc="http://creativecommons.org/ns#"
   xmlns:rdf="http://www.w3.org/1999/02/22-rdf-syntax-ns#"
   xmlns:svg="http://www.w3.org/2000/svg"
   xmlns="http://www.w3.org/2000/svg"
   xmlns:sodipodi="http://sodipodi.sourceforge.net/DTD/sodipodi-0.dtd"
   xmlns:inkscape="http://www.inkscape.org/namespaces/inkscape"
   width="744.09448819"
   height="1052.3622047"
   id="svg2"
   version="1.1"
   inkscape:version="0.48.2 r9819"
   sodipodi:docname="New document 1">
  <defs
     id="defs4" />
  <sodipodi:namedview
     id="base"
     pagecolor="#ffffff"
     bordercolor="#666666"
     borderopacity="1.0"
     inkscape:pageopacity="0.0"
     inkscape:pageshadow="2"
     inkscape:zoom="1.4"
     inkscape:cx="337.05103"
     inkscape:cy="979.02994"
     inkscape:document-units="px"
     inkscape:current-layer="g2989"
     showgrid="false"
     inkscape:window-width="1440"
     inkscape:window-height="848"
     inkscape:window-x="-8"
     inkscape:window-y="-8"
     inkscape:window-maximized="1" />
  <metadata
     id="metadata7">
    <rdf:RDF>
      <cc:Work
         rdf:about="">
        <dc:format>image/svg+xml</dc:format>
        <dc:type
           rdf:resource="http://purl.org/dc/dcmitype/StillImage" />
        <dc:title></dc:title>
      </cc:Work>
    </rdf:RDF>
  </metadata>
  <g
     inkscape:label="Layer 1"
     inkscape:groupmode="layer"
     id="layer1">
    <g
       style="enable-background:new;fill:#000000"
       id="g3001"
       transform="translate(79.596529,240.01858)">
      <g
         id="g2987"
         transform="matrix(8.9,0,0,8.9,341,114)"
         style="fill:#000000">
        <g
           id="g2989"
           transform="matrix(1.02,0,0,1.02,-2.75,2.41)"
           style="fill:#000000">
          <path
             id="path2991"
             d="m -29.485017,-39.09371 h -1.61 v 0.536 c 0,0.591 -0.481,1.07 -1.07,1.07 -0.591,0 -1.07,-0.481 -1.07,-1.07 v -0.536 h -5.36 v 0.536 c 0,0.591 -0.481,1.07 -1.07,1.07 -0.591,0 -1.07,-0.481 -1.07,-1.07 v -0.536 h -1.61 c -0.589,0 -1.07,0.482 -1.07,1.07 v 11.8 c 0,0.589 0.482,1.07 1.07,1.07 h 12.9 c 0.589,0 1.07,-0.482 1.07,-1.07 v -11.8 c 0,-0.589 -0.482,-1.07 -1.07,-1.07 z m 0,12.9 c -5.22e-4,5.23e-4 -0.001,0.0017 -0.0022,0.0022 h -12.9 c -5.37e-4,-5.22e-4 -0.0017,-10e-4 -0.0022,-0.0022 v -9.64 h 12.9 v 9.64 z m -10.2,-11.8 c 0.296,0 0.536,-0.24 0.536,-0.536 v -2.14 c 0,-0.296 -0.24,-0.536 -0.536,-0.536 -0.296,0 -0.536,0.24 -0.536,0.536 v 2.14 c 0,0.296 0.24,0.536 0.536,0.536 z m 7.5,0 c 0.296,0 0.536,-0.24 0.536,-0.536 v -2.14 c 0,-0.296 -0.24,-0.536 -0.536,-0.536 -0.296,0 -0.536,0.24 -0.536,0.536 v 2.14 c 0,0.296 0.24,0.536 0.536,0.536 z m 2.28,13.3 h -12.1 c -0.589,0 -1.07,-0.348 -1.07,-0.938 v 0.536 c 0,0.589 0.482,1.07 1.07,1.07 h 12.1 c 0.589,0 1.07,-0.482 1.07,-1.07 v -0.536 c 0,0.589 -0.482,0.938 -1.07,0.938 z"
             class="path1"
             inkscape:connector-curvature="0"
             style="fill:#ffffff" />
          <text
             id="text2993"
             style="font-size:12px;font-style:normal;font-variant:normal;font-weight:normal;font-stretch:normal;text-align:center;line-height:125%;writing-mode:lr-tb;text-anchor:middle;fill:#ffffff;font-family:Sans;-inkscape-font-specification:Sans"
             x="-35.888073"
             y="-26.687128"
             sodipodi:linespacing="125%">29</text>
        </g>
      </g>
    </g>
  </g>
</svg>
