<svg class="icons" xmlns="http://www.w3.org/2000/svg">
	<symbol id="joystick" viewBox="0 0 96 96">
		<path d="M60,58v14h20V58c0-1.1-0.9-2-2-2H62C60.9,56,60,56.9,60,58z"/>
		<path d="M36,38.304V72h16V38.304C59.052,35.208,64,28.18,64,20C64,8.972,55.027,0,44,0C32.972,0,24,8.972,24,20  C24,28.18,28.948,35.208,36,38.304z M44,6c7.721,0,14,6.28,14,14c0,1.104-0.9,2-2,2s-2-0.896-2-2c0-5.512-4.488-10-10-10  c-1.104,0-2-0.896-2-2S42.896,6,44,6z"/>
		<path d="M94,76H2c-1.104,0-2,0.9-2,2v16c0,1.1,0.896,2,2,2h92c1.1,0,2-0.9,2-2V78C96,76.9,95.1,76,94,76z"/>
	</symbol>
	<symbol id="video" viewBox="0 0 100 100">
		<g display="none">
			<path display="inline" fill-rule="evenodd" clip-rule="evenodd" d="M20.574,64.951h11.054c-0.673-1.912-1.123-3.93-1.318-6.023   h-8.533c-7.975,0-14.44-6.473-14.44-14.456c0-7.983,6.466-14.456,14.44-14.456h21.862c7.977,0,14.441,6.473,14.441,14.456   c0,6.489-4.268,11.978-10.146,13.806c0.824,1.5,2.18,3.689,3.862,5.385C59.568,60.76,65.1,53.266,65.1,44.472   c0-11.31-9.158-20.479-20.458-20.479H20.574c-11.299,0-20.458,9.17-20.458,20.479C0.116,55.785,9.275,64.951,20.574,64.951z"/>
			<path display="inline" fill-rule="evenodd" clip-rule="evenodd" d="M35.015,56.52c0,11.311,9.16,20.48,20.458,20.48h24.068   C90.841,77,100,67.83,100,56.52c0-11.312-9.159-20.48-20.458-20.48H68.471c0.677,1.913,1.13,3.931,1.33,6.023h8.738   c7.974,0,14.439,6.474,14.439,14.457c0,7.984-6.466,14.457-14.439,14.457H56.677c-7.976,0-14.442-6.473-14.442-14.457   c0-6.615,4.437-12.19,10.495-13.908c-0.447-2.259-1.676-4.238-3.4-5.632C41.034,39.592,35.015,47.352,35.015,56.52z"/>
		</g>
		<g>
			<path d="M88,17H12C5.373,17,0,22.373,0,29v42c0,6.627,5.373,12,12,12h76c6.627,0,12-5.373,12-12V29C100,22.373,94.627,17,88,17z    M42,62.802V35.913l23.287,13.445L42,62.802z"/>
		</g>
	</symbol>
	<symbol id="roundup" viewBox="0 0 148 148">
		<g>
			<g transform="matrix(4.6 0 0 4.6 0 .205)">
				<path class="path1" d="m16 0c-8.84 0-16 7.16-16 16s7.16 16 16 16 16-7.16 16-16-7.16-16-16-16zm0 28c-6.63 0-12-5.37-12-12s5.37-12 12-12c6.63 0 12 5.37 12 12s-5.37 12-12 12z"/>
			</g>
			<g transform="matrix(1.93 0 0 1.93 43.1 43.3)">
				<line x2="0"/>
				<path d="m16 0-16 16h10v16h12v-16h10z"/>
			</g>
		</g>
	</symbol>
	<symbol id="logo" viewBox="0 0 320 320">
		<g>
			<g transform="translate(-17.5 -15.5)">
				<path d="m93.7 25.3-68.4 68.3" stroke-linecap="round" stroke-width="15.6"/>
				<g transform="translate(2)">
					<path d="m52.4 153 36.6-37" stroke-linecap="round" stroke-width="15.3"/>
				</g>
				<path d="m271 22.5-246 246" stroke-linecap="round" stroke-width="14"/>
				<g transform="translate(60,-60)">
					<path d="m52.4 153 36.6-37" stroke-linecap="round" stroke-width="15.3"/>
				</g>
			</g>
			<g transform="matrix(-1 0 0 -1 316 319)">
				<path d="m93.7 25.3-68.4 68.3" stroke-linecap="round" stroke-width="15.6"/>
				<g transform="translate(2)">
					<path d="m52.4 153 36.6-37" stroke-linecap="round" stroke-width="15.3"/>
				</g>
				<path d="m271 22.5-246 246" stroke-linecap="round" stroke-width="14"/>
				<g transform="translate(60,-60)">
					<path d="m52.4 153 36.6-37" stroke-linecap="round" stroke-width="15.3"/>
				</g>
			</g>
		</g>
	</symbol>
	<symbol id="solidhaxe" viewBox="0 0 360 360">
		<g>
			<path d="m0 0h91.2l88 44 89-44h89v88.3l-46 89.8 46 90v89h-89.8l-88.2-45-89 45h-90l1-91 43-88-44-88z" stroke="#fff" stroke-width="1px" fill="#fff"/>
		</g>
	</symbol>
</svg>