<svg xmlns="http://www.w3.org/2000/svg" xmlns:xlink="http://www.w3.org/1999/xlink" version="1.1" id="Layer_1" x="0px" y="0px" width="100px" height="100px" viewBox="0 0 100 100" enable-background="new 0 0 100 100" xml:space="preserve">
<path d="M88.613,61.973c-0.176-0.295-0.381-0.581-0.639-0.84L53.598,50.008l-0.066-45.53l-0.055,0.005  c0.012-0.002,0.039-0.195,0.033-0.252c-0.07-0.907-1.688-1.587-4.031-1.856C48.348,2.215,46.98,2.17,45.5,2.282  c-0.601,0.045-1.171,0.122-1.722,0.208c-0.19,0.028-0.369,0.064-0.554,0.095c-0.13,0.024-0.266,0.045-0.391,0.072  c-3.174,0.596-5.422,1.746-5.335,2.858c0.004,0.057,0.06,0.224,0.072,0.224l-0.053,0.005l7.38,44.721L12.691,60.32  c-0.535,0.153-0.725,0.191-1.069,0.383l-0.305,0.496c-1.679,2.9-0.952,16.646,0.725,18.32l34.93,18.034  c2.332,0.996,3.84,1.071,6.073,0.144l34.93-17.674C89.652,78.346,90.284,63.682,88.613,61.973z M38.92,4.827  c0.084,1.121,3.17,1.803,6.888,1.52c3.241-0.251,5.89-1.143,6.466-2.111c0.004,0.026,0.029,0.042,0.031,0.071  c0.088,1.995-2.792,2.981-6.513,3.265C42.073,7.856,38.917,7.268,38.92,4.827z M45.985,57.064l0.561,3.397  c0,0-0.034,0.701,0.14,0.841c0.643,0.502,3.304,0.391,3.304,0.391s2.996-0.291,3.617-0.969c0.145-0.153,0.004-0.758,0.004-0.758  l-0.004-3.595c3.741,0.19,6.454,1.223,6.616,2.744c0.219,2.065-4.317,4.242-10.134,4.859c-5.815,0.618-10.708-0.556-10.925-2.621  C38.99,59.706,41.866,58.003,45.985,57.064z M37.771,61.65c-0.047,0.192-0.075,0.393-0.052,0.602  c0.271,2.567,5.906,5.399,12.73,4.672c6.826-0.723,12.138-3.395,11.866-5.963c-0.02-0.183-0.074-0.36-0.149-0.532  c0.912,0.53,1.473,1.174,1.552,1.909c0.278,2.626-5.524,5.395-12.964,6.185c-7.434,0.789-13.485-2.631-13.764-5.257  C36.922,62.627,37.206,62.102,37.771,61.65z M57.225,78.064c0.152,1.906-2.654,3.684-6.271,3.972  c-3.616,0.289-6.669-1.023-6.821-2.93c-0.025-0.322,0.06-0.634,0.19-0.941c0.74,1.524,3.469,2.492,6.631,2.242  c3.008-0.241,5.43-1.512,6.08-3.03C57.14,77.595,57.205,77.826,57.225,78.064z M87.975,69.354l-34.93,17.749  c-1.795,0.791-3.941,1.094-6.073,0l-34.93-17.749c-1.756-0.675-1.412-2.469-1.26-4.262c0.207,0.58,0.535,1.526,1.26,2.112  l34.93,17.75c1.609,0.798,4.614,0.456,6.073,0l34.93-17.75c0.567-0.566,1.06-1.385,1.241-2.112  C89.216,66.695,89.901,68.375,87.975,69.354z"/>
</svg>