<?xml version="1.0" encoding="UTF-8" standalone="no"?>
<svg xmlns:rdf="http://www.w3.org/1999/02/22-rdf-syntax-ns#" xmlns="http://www.w3.org/2000/svg" version="1.1" enable-background="new" xmlns:cc="http://creativecommons.org/ns#" xmlns:xlink="http://www.w3.org/1999/xlink" viewBox="0 0 148 148" xmlns:dc="http://purl.org/dc/elements/1.1/">
	<g fill="#fff">
		<g transform="matrix(4.6 0 0 4.6 0 .205)">
			<path class="path1" d="m16 0c-8.84 0-16 7.16-16 16s7.16 16 16 16 16-7.16 16-16-7.16-16-16-16zm0 28c-6.63 0-12-5.37-12-12s5.37-12 12-12c6.63 0 12 5.37 12 12s-5.37 12-12 12z"/>
		</g>
		<g transform="matrix(1.93 0 0 1.93 43.1 43.3)">
			<line opacity="" fill="#fff" stroke="#449fdb" x2="0"/>
			<path d="m16 0-16 16h10v16h12v-16h10z"/>
		</g>
	</g>
</svg>